<?xml version="1.0" standalone="no"?>
<!DOCTYPE svg PUBLIC "-//W3C//DTD SVG 20010904//EN"
 "http://www.w3.org/TR/2001/REC-SVG-20010904/DTD/svg10.dtd">
<svg version="1.0" xmlns="http://www.w3.org/2000/svg"
 width="260.000000pt" height="260.000000pt" viewBox="0 0 260.000000 260.000000"
 preserveAspectRatio="xMidYMid meet">
<metadata>
Created by potrace 1.14, written by Peter Selinger 2001-2017
</metadata>
<g transform="translate(0.000000,260.000000) scale(0.100000,-0.100000)"
fill="#000000" stroke="none">
<path d="M0 1300 l0 -1300 1300 0 1300 0 0 619 0 620 -35 -15 c-67 -28 -122
-13 -228 62 -53 38 -62 41 -53 17 12 -30 36 -385 35 -518 0 -182 -13 -325 -34
-368 -24 -50 -70 -77 -133 -77 -53 0 -98 27 -124 74 -9 15 -13 116 -14 341 -1
176 -7 358 -13 405 -6 47 -14 124 -18 173 -3 48 -8 87 -11 87 -3 0 -27 -21
-54 -46 -26 -25 -64 -52 -83 -60 -119 -49 -237 44 -210 167 4 19 32 58 69 98
34 36 87 105 119 153 56 85 91 121 127 133 10 3 22 19 25 36 9 41 67 97 109
104 95 18 160 -35 186 -150 23 -103 139 -244 288 -348 l52 -37 0 565 0 565
-1300 0 -1300 0 0 -1300z m1282 981 c48 -20 88 -45 106 -66 56 -63 50 -148
-13 -204 -56 -49 -97 -50 -210 -7 -51 19 -135 20 -259 1 -78 -12 -117 -24
-180 -56 -94 -48 -116 -65 -116 -91 0 -10 20 -59 45 -108 41 -81 51 -94 103
-127 31 -20 120 -60 197 -88 295 -109 312 -125 440 -419 75 -174 85 -218 85
-391 0 -224 -28 -330 -110 -419 -53 -57 -98 -79 -234 -112 -105 -25 -120 -26
-325 -22 l-216 4 -105 42 c-148 59 -301 175 -358 272 -55 92 -27 213 59 258
84 44 153 16 204 -83 39 -76 123 -142 222 -174 66 -21 85 -23 250 -19 224 5
281 21 301 81 20 63 19 273 -2 330 -43 119 -123 281 -146 299 -14 10 -91 42
-171 72 -167 61 -311 138 -362 195 -20 22 -67 103 -106 181 -68 136 -71 144
-71 214 0 114 49 229 121 284 33 25 215 121 264 139 81 30 255 52 385 49 115
-2 131 -5 202 -35z"/>
</g>
</svg>
